<?xml version="1.0" encoding="UTF-8" standalone="no"?>
<!DOCTYPE svg PUBLIC "-//W3C//DTD SVG 1.1//EN" "http://www.w3.org/Graphics/SVG/1.1/DTD/svg11.dtd">
<!-- Generated by Microsoft Visio, SVG Export memory.svg Page-1 -->
<svg xmlns="http://www.w3.org/2000/svg" xmlns:xlink="http://www.w3.org/1999/xlink" xmlns:ev="http://www.w3.org/2001/xml-events"
		xmlns:v="http://schemas.microsoft.com/visio/2003/SVGExtensions/" width="7.32049in" height="4.54222in"
		viewBox="0 0 527.075 327.04" xml:space="preserve" color-interpolation-filters="sRGB" class="st11">
	<v:documentProperties v:langID="1033" v:viewMarkup="false">
		<v:userDefs>
			<v:ud v:nameU="msvNoAutoConnect" v:val="VT0(1):26"/>
		</v:userDefs>
	</v:documentProperties>

	<style type="text/css">
	<![CDATA[
		.st1 {fill:#ffffff}
		.st2 {stroke:#000000;stroke-linecap:round;stroke-linejoin:round;stroke-width:0.24}
		.st3 {fill:#000000;font-family:Calibri;font-size:1.33333em}
		.st4 {font-size:1em}
		.st5 {fill:none;stroke:none;stroke-linecap:round;stroke-linejoin:round;stroke-width:0.75}
		.st6 {fill:#000000;font-family:Calibri;font-size:1.5em}
		.st7 {fill:#000000;font-family:Calibri;font-size:1.16666em}
		.st8 {marker-end:url(#mrkr14-81);stroke:#000000;stroke-linecap:round;stroke-linejoin:round;stroke-width:0.75}
		.st9 {fill:#000000;fill-opacity:1;stroke:#000000;stroke-opacity:1;stroke-width:0.22935779816514}
		.st10 {fill:#ff0000;stroke:#cc0000;stroke-linecap:round;stroke-linejoin:round;stroke-width:0.05}
		.st11 {fill:none;fill-rule:evenodd;font-size:12px;overflow:visible;stroke-linecap:square;stroke-miterlimit:3}
	]]>
	</style>

	<defs id="Markers">
		<g id="lend14">
			<path d="M 3 -1 L 0 0 L 3 1 L 3 -1 " style="stroke-linecap:round;stroke-linejoin:round;fill:none"/>
		</g>
		<marker id="mrkr14-81" class="st9" v:arrowType="14" v:arrowSize="2" v:setback="12.6" refX="-12.6" orient="auto"
				markerUnits="strokeWidth" overflow="visible">
			<use xlink:href="#lend14" transform="scale(-4.36,-4.36) "/>
		</marker>
	</defs>
	<g v:mID="0" v:index="1" v:groupContext="foregroundPage">
		<title>Page-1</title>
		<v:pageProperties v:drawingScale="1" v:pageScale="1" v:drawingUnits="19" v:shadowOffsetX="9" v:shadowOffsetY="-9"/>
		<v:layer v:name="Connector" v:index="0"/>
		<g id="shape3-1" v:mID="3" v:groupContext="shape" transform="translate(125.798,-108.24)">
			<title>15 ruled column</title>
			<v:userDefs>
				<v:ud v:nameU="AntiScale" v:val="VT0(1):26"/>
				<v:ud v:nameU="visVersion" v:val="VT0(15):26"/>
			</v:userDefs>
			<path d="M0 327.04 L90 327.04 L90 237.04 L0 237.04 L0 327.04 Z" class="st1"/>
			<path d="M0 327.04 L90 327.04 L90 237.04 L0 237.04 L0 327.04" class="st2"/>
			<path d="M0 255.04 L90 255.04" class="st2"/>
			<path d="M0 273.04 L90 273.04" class="st2"/>
			<path d="M0 291.04 L90 291.04" class="st2"/>
			<path d="M0 309.04 L90 309.04" class="st2"/>
			<path d="M0 327.04 L90 327.04" class="st2"/>
			<path d="M0 327.04 L90 327.04" class="st2"/>
			<path d="M0 327.04 L90 327.04" class="st2"/>
			<path d="M0 327.04 L90 327.04" class="st2"/>
			<path d="M0 327.04 L90 327.04" class="st2"/>
			<path d="M0 327.04 L90 327.04" class="st2"/>
			<path d="M0 327.04 L90 327.04" class="st2"/>
			<path d="M0 327.04 L90 327.04" class="st2"/>
			<path d="M0 327.04 L90 327.04" class="st2"/>
			<path d="M0 327.04 L90 327.04" class="st2"/>
		</g>
		<g id="shape9-18" v:mID="9" v:groupContext="shape" transform="translate(125.798,-198.24)">
			<title>15 ruled column.9</title>
			<desc>Field 1 Field 2 … Field n</desc>
			<v:userDefs>
				<v:ud v:nameU="AntiScale" v:val="VT0(1):26"/>
				<v:ud v:nameU="visVersion" v:val="VT0(15):26"/>
			</v:userDefs>
			<v:textBlock v:margins="rect(0,4,4,4)" v:verticalAlign="0"/>
			<v:textRect cx="45" cy="282.04" width="90" height="90"/>
			<path d="M0 327.04 L90 327.04 L90 237.04 L0 237.04 L0 327.04 Z" class="st1"/>
			<path d="M0 327.04 L90 327.04 L90 237.04 L0 237.04 L0 327.04" class="st2"/>
			<path d="M0 255.04 L90 255.04" class="st2"/>
			<path d="M0 273.04 L90 273.04" class="st2"/>
			<path d="M0 291.04 L90 291.04" class="st2"/>
			<path d="M0 309.04 L90 309.04" class="st2"/>
			<path d="M0 327.04 L90 327.04" class="st2"/>
			<path d="M0 327.04 L90 327.04" class="st2"/>
			<path d="M0 327.04 L90 327.04" class="st2"/>
			<path d="M0 327.04 L90 327.04" class="st2"/>
			<path d="M0 327.04 L90 327.04" class="st2"/>
			<path d="M0 327.04 L90 327.04" class="st2"/>
			<path d="M0 327.04 L90 327.04" class="st2"/>
			<path d="M0 327.04 L90 327.04" class="st2"/>
			<path d="M0 327.04 L90 327.04" class="st2"/>
			<path d="M0 327.04 L90 327.04" class="st2"/>
			<text x="23.61" y="304.54" class="st3" v:langID="1033"><v:paragraph v:spLine="0.25" v:horizAlign="1"/><v:tabList/><v:newlineChar/><v:newlineChar/><v:newlineChar/>Field 1<v:newlineChar/><tspan
						x="23.61" dy="1.125em" class="st4">Field 2<v:newlineChar/></tspan><tspan x="39.48" dy="1.125em" class="st4">…<v:newlineChar/><v:paragraph
							v:spLine="0.25" v:horizAlign="1"/></tspan><tspan x="23.46" dy="1.125em" class="st4">Field n</tspan></text>		</g>
		<g id="shape7-39" v:mID="7" v:groupContext="shape" transform="translate(125.798,-18.24)">
			<title>15 ruled column.7</title>
			<desc>Field 1 Field 2 … Field n</desc>
			<v:userDefs>
				<v:ud v:nameU="AntiScale" v:val="VT0(1):26"/>
				<v:ud v:nameU="visVersion" v:val="VT0(15):26"/>
			</v:userDefs>
			<v:textBlock v:margins="rect(0,4,4,4)" v:verticalAlign="0"/>
			<v:textRect cx="45" cy="282.04" width="90" height="90"/>
			<path d="M0 327.04 L90 327.04 L90 237.04 L0 237.04 L0 327.04 Z" class="st1"/>
			<path d="M0 327.04 L90 327.04 L90 237.04 L0 237.04 L0 327.04" class="st2"/>
			<path d="M0 255.04 L90 255.04" class="st2"/>
			<path d="M0 273.04 L90 273.04" class="st2"/>
			<path d="M0 291.04 L90 291.04" class="st2"/>
			<path d="M0 309.04 L90 309.04" class="st2"/>
			<path d="M0 327.04 L90 327.04" class="st2"/>
			<path d="M0 327.04 L90 327.04" class="st2"/>
			<path d="M0 327.04 L90 327.04" class="st2"/>
			<path d="M0 327.04 L90 327.04" class="st2"/>
			<path d="M0 327.04 L90 327.04" class="st2"/>
			<path d="M0 327.04 L90 327.04" class="st2"/>
			<path d="M0 327.04 L90 327.04" class="st2"/>
			<path d="M0 327.04 L90 327.04" class="st2"/>
			<path d="M0 327.04 L90 327.04" class="st2"/>
			<path d="M0 327.04 L90 327.04" class="st2"/>
			<text x="23.61" y="250.54" class="st3" v:langID="1033"><v:paragraph v:spLine="0.25" v:horizAlign="1"/><v:tabList/>Field 1<v:newlineChar/><tspan
						x="23.61" dy="1.125em" class="st4">Field 2<v:newlineChar/></tspan><tspan x="39.48" dy="1.125em" class="st4">…<v:newlineChar/><v:paragraph
							v:spLine="0.25" v:horizAlign="1"/></tspan><tspan x="23.46" dy="1.125em" class="st4">Field n</tspan></text>		</g>
		<g id="shape11-60" v:mID="11" v:groupContext="shape" transform="translate(94.798,-288.24)">
			<title>Sheet.11</title>
			<desc>System Memory</desc>
			<v:textBlock v:margins="rect(4,4,4,4)"/>
			<v:textRect cx="76" cy="317.04" width="152" height="20"/>
			<rect x="0" y="307.04" width="152" height="20" class="st5"/>
			<text x="16.23" y="322.44" class="st6" v:langID="1033"><v:paragraph v:horizAlign="1"/><v:tabList/>System Memory</text>		</g>
		<g id="shape14-63" v:mID="14" v:groupContext="shape" transform="translate(89.798,-171.24)">
			<title>Left Brace</title>
			<v:userDefs>
				<v:ud v:nameU="visVersion" v:prompt="" v:val="VT0(15):26"/>
			</v:userDefs>
			<path d="M28.8 327.04 A38.5574 9.0369 0 0 1 14.4 321.64 L14.4 300.04 L0 300.04 L14.4 300.04 L14.4 278.44 A38.5574 9.0369
						 0 0 1 28.8 273.04" class="st2"/>
		</g>
		<g id="shape15-66" v:mID="15" v:groupContext="shape" transform="translate(21.398,-143.24)">
			<title>Sheet.15</title>
			<desc>c1</desc>
			<v:textBlock v:margins="rect(4,4,4,4)"/>
			<v:textRect cx="14.4" cy="317.04" width="28.8" height="20"/>
			<rect x="0" y="307.04" width="28.8" height="20" class="st5"/>
			<text x="7.89" y="321.24" class="st7" v:langID="1033"><v:paragraph v:horizAlign="1"/><v:tabList/>c1</text>		</g>
		<g id="shape17-69" v:mID="17" v:groupContext="shape" transform="translate(88.798,-45.24)">
			<title>Left Brace.17</title>
			<v:userDefs>
				<v:ud v:nameU="visVersion" v:prompt="" v:val="VT0(15):26"/>
			</v:userDefs>
			<path d="M28.8 327.04 A38.5574 9.0369 0 0 1 14.4 321.64 L14.4 300.04 L0 300.04 L14.4 300.04 L14.4 278.44 A38.5574 9.0369
						 0 0 1 28.8 273.04" class="st2"/>
		</g>
		<g id="shape18-72" v:mID="18" v:groupContext="shape" transform="translate(21.398,-108.24)">
			<title>Sheet.18</title>
			<desc>c2</desc>
			<v:textBlock v:margins="rect(4,4,4,4)"/>
			<v:textRect cx="14.4" cy="317.04" width="28.8" height="20"/>
			<rect x="0" y="307.04" width="28.8" height="20" class="st5"/>
			<text x="7.89" y="321.24" class="st7" v:langID="1033"><v:paragraph v:horizAlign="1"/><v:tabList/>c2</text>		</g>
		<g id="group26-75" transform="translate(35.798,-163.24)" v:mID="26" v:groupContext="group" v:layerMember="0">
			<v:userDefs>
				<v:ud v:nameU="visVersion" v:prompt="" v:val="VT0(15):26"/>
				<v:ud v:nameU="RelationshipName" v:prompt="" v:val="VT4()"/>
				<v:ud v:nameU="ShowMulti" v:prompt="" v:val="VT0(0):26"/>
				<v:ud v:nameU="Identifying" v:prompt="" v:val="VT0(1):26"/>
				<v:ud v:nameU="DXBegin" v:prompt="" v:val="VT0(0):1"/>
				<v:ud v:nameU="DYBegin" v:prompt="" v:val="VT0(-0.03):1"/>
				<v:ud v:nameU="DXEnd" v:prompt="" v:val="VT0(0.03):1"/>
				<v:ud v:nameU="DYEnd" v:prompt="" v:val="VT0(0):1"/>
				<v:ud v:nameU="BeginAngle" v:prompt="" v:val="VT0(-1.5707963267949):32"/>
				<v:ud v:nameU="EndAngle" v:prompt="" v:val="VT0(0):32"/>
				<v:ud v:nameU="DYBegin" v:prompt="" v:val="VT0(0.018541666467984):1"/>
				<v:ud v:nameU="DXEnd" v:prompt="" v:val="VT0(0.018541666467985):1"/>
				<v:ud v:nameU="BeginAngle" v:prompt="" v:val="VT0(1.5707963267949):32"/>
			</v:userDefs>
			<title>Inheritance</title>
			<g id="shape26-76" v:mID="26" v:groupContext="groupContent" v:layerMember="0">
				<path d="M0 327.04 C0 318.29 0 305.92 9 299.38 C16.88 293.65 31.66 292.39 44.19 292.12 L44.55 292.11" class="st8"/>
			</g>
		</g>
		<g id="group32-82" transform="translate(35.798,-108.24)" v:mID="32" v:groupContext="group" v:layerMember="0">
			<v:userDefs>
				<v:ud v:nameU="visVersion" v:prompt="" v:val="VT0(15):26"/>
				<v:ud v:nameU="RelationshipName" v:prompt="" v:val="VT4()"/>
				<v:ud v:nameU="ShowMulti" v:prompt="" v:val="VT0(0):26"/>
				<v:ud v:nameU="Identifying" v:prompt="" v:val="VT0(1):26"/>
				<v:ud v:nameU="DXBegin" v:prompt="" v:val="VT0(0):1"/>
				<v:ud v:nameU="DYBegin" v:prompt="" v:val="VT0(-0.03):1"/>
				<v:ud v:nameU="DXEnd" v:prompt="" v:val="VT0(0.03):1"/>
				<v:ud v:nameU="DYEnd" v:prompt="" v:val="VT0(0):1"/>
				<v:ud v:nameU="BeginAngle" v:prompt="" v:val="VT0(-1.5707963267949):32"/>
				<v:ud v:nameU="EndAngle" v:prompt="" v:val="VT0(0):32"/>
				<v:ud v:nameU="DYBegin" v:prompt="" v:val="VT0(-0.018541666666666):1"/>
				<v:ud v:nameU="DXEnd" v:prompt="" v:val="VT0(0.018541666666667):1"/>
			</v:userDefs>
			<title>Inheritance.32</title>
			<g id="shape32-83" v:mID="32" v:groupContext="groupContent" v:layerMember="0">
				<path d="M0 327.04 C0 336.04 -0 348.84 8.94 355.57 C16.63 361.37 30.97 362.67 43.19 362.96 L43.55 362.96"
						class="st8"/>
			</g>
		</g>
		<g id="shape37-88" v:mID="37" v:groupContext="shape" transform="translate(387.7,-108.12)">
			<title>15 ruled column.37</title>
			<v:userDefs>
				<v:ud v:nameU="AntiScale" v:val="VT0(1):26"/>
				<v:ud v:nameU="visVersion" v:val="VT0(15):26"/>
			</v:userDefs>
			<path d="M0 327.04 L90 327.04 L90 237.04 L0 237.04 L0 327.04 Z" class="st1"/>
			<path d="M0 327.04 L90 327.04 L90 237.04 L0 237.04 L0 327.04" class="st2"/>
			<path d="M0 255.04 L90 255.04" class="st2"/>
			<path d="M0 273.04 L90 273.04" class="st2"/>
			<path d="M0 291.04 L90 291.04" class="st2"/>
			<path d="M0 309.04 L90 309.04" class="st2"/>
			<path d="M0 327.04 L90 327.04" class="st2"/>
			<path d="M0 327.04 L90 327.04" class="st2"/>
			<path d="M0 327.04 L90 327.04" class="st2"/>
			<path d="M0 327.04 L90 327.04" class="st2"/>
			<path d="M0 327.04 L90 327.04" class="st2"/>
			<path d="M0 327.04 L90 327.04" class="st2"/>
			<path d="M0 327.04 L90 327.04" class="st2"/>
			<path d="M0 327.04 L90 327.04" class="st2"/>
			<path d="M0 327.04 L90 327.04" class="st2"/>
			<path d="M0 327.04 L90 327.04" class="st2"/>
		</g>
		<g id="shape38-105" v:mID="38" v:groupContext="shape" transform="translate(387.7,-198.12)">
			<title>15 ruled column.38</title>
			<desc>Field 1 Field 2 … Field n</desc>
			<v:userDefs>
				<v:ud v:nameU="AntiScale" v:val="VT0(1):26"/>
				<v:ud v:nameU="visVersion" v:val="VT0(15):26"/>
			</v:userDefs>
			<v:textBlock v:margins="rect(0,4,4,4)" v:verticalAlign="0"/>
			<v:textRect cx="45" cy="282.04" width="90" height="90"/>
			<path d="M0 327.04 L90 327.04 L90 237.04 L0 237.04 L0 327.04 Z" class="st1"/>
			<path d="M0 327.04 L90 327.04 L90 237.04 L0 237.04 L0 327.04" class="st2"/>
			<path d="M0 255.04 L90 255.04" class="st2"/>
			<path d="M0 273.04 L90 273.04" class="st2"/>
			<path d="M0 291.04 L90 291.04" class="st2"/>
			<path d="M0 309.04 L90 309.04" class="st2"/>
			<path d="M0 327.04 L90 327.04" class="st2"/>
			<path d="M0 327.04 L90 327.04" class="st2"/>
			<path d="M0 327.04 L90 327.04" class="st2"/>
			<path d="M0 327.04 L90 327.04" class="st2"/>
			<path d="M0 327.04 L90 327.04" class="st2"/>
			<path d="M0 327.04 L90 327.04" class="st2"/>
			<path d="M0 327.04 L90 327.04" class="st2"/>
			<path d="M0 327.04 L90 327.04" class="st2"/>
			<path d="M0 327.04 L90 327.04" class="st2"/>
			<path d="M0 327.04 L90 327.04" class="st2"/>
			<text x="23.61" y="304.54" class="st3" v:langID="1033"><v:paragraph v:spLine="0.25" v:horizAlign="1"/><v:tabList/><v:newlineChar/><v:newlineChar/><v:newlineChar/>Field 1<v:newlineChar/><tspan
						x="23.61" dy="1.125em" class="st4">Field 2<v:newlineChar/></tspan><tspan x="39.48" dy="1.125em" class="st4">…<v:newlineChar/><v:paragraph
							v:spLine="0.25" v:horizAlign="1"/></tspan><tspan x="23.46" dy="1.125em" class="st4">Field n</tspan></text>		</g>
		<g id="shape39-126" v:mID="39" v:groupContext="shape" transform="translate(387.7,-18.12)">
			<title>15 ruled column.39</title>
			<desc>Field 1 Field 2 … Field n</desc>
			<v:userDefs>
				<v:ud v:nameU="AntiScale" v:val="VT0(1):26"/>
				<v:ud v:nameU="visVersion" v:val="VT0(15):26"/>
			</v:userDefs>
			<v:textBlock v:margins="rect(0,4,4,4)" v:verticalAlign="0"/>
			<v:textRect cx="45" cy="282.04" width="90" height="90"/>
			<path d="M0 327.04 L90 327.04 L90 237.04 L0 237.04 L0 327.04 Z" class="st1"/>
			<path d="M0 327.04 L90 327.04 L90 237.04 L0 237.04 L0 327.04" class="st2"/>
			<path d="M0 255.04 L90 255.04" class="st2"/>
			<path d="M0 273.04 L90 273.04" class="st2"/>
			<path d="M0 291.04 L90 291.04" class="st2"/>
			<path d="M0 309.04 L90 309.04" class="st2"/>
			<path d="M0 327.04 L90 327.04" class="st2"/>
			<path d="M0 327.04 L90 327.04" class="st2"/>
			<path d="M0 327.04 L90 327.04" class="st2"/>
			<path d="M0 327.04 L90 327.04" class="st2"/>
			<path d="M0 327.04 L90 327.04" class="st2"/>
			<path d="M0 327.04 L90 327.04" class="st2"/>
			<path d="M0 327.04 L90 327.04" class="st2"/>
			<path d="M0 327.04 L90 327.04" class="st2"/>
			<path d="M0 327.04 L90 327.04" class="st2"/>
			<path d="M0 327.04 L90 327.04" class="st2"/>
			<text x="23.61" y="250.54" class="st3" v:langID="1033"><v:paragraph v:spLine="0.25" v:horizAlign="1"/><v:tabList/>Field 1<v:newlineChar/><tspan
						x="23.61" dy="1.125em" class="st4">Field 2<v:newlineChar/></tspan><tspan x="39.48" dy="1.125em" class="st4">…<v:newlineChar/><v:paragraph
							v:spLine="0.25" v:horizAlign="1"/></tspan><tspan x="23.46" dy="1.125em" class="st4">Field n</tspan></text>		</g>
		<g id="shape40-147" v:mID="40" v:groupContext="shape" transform="translate(356.7,-288.12)">
			<title>Sheet.40</title>
			<desc>System Memory</desc>
			<v:textBlock v:margins="rect(4,4,4,4)"/>
			<v:textRect cx="76" cy="317.04" width="152" height="20"/>
			<rect x="0" y="307.04" width="152" height="20" class="st5"/>
			<text x="16.23" y="322.44" class="st6" v:langID="1033"><v:paragraph v:horizAlign="1"/><v:tabList/>System Memory</text>		</g>
		<g id="shape41-150" v:mID="41" v:groupContext="shape" transform="translate(351.7,-171.12)">
			<title>Left Brace.41</title>
			<v:userDefs>
				<v:ud v:nameU="visVersion" v:prompt="" v:val="VT0(15):26"/>
			</v:userDefs>
			<path d="M28.8 327.04 A38.5574 9.0369 0 0 1 14.4 321.64 L14.4 300.04 L0 300.04 L14.4 300.04 L14.4 278.44 A38.5574 9.0369
						 0 0 1 28.8 273.04" class="st2"/>
		</g>
		<g id="shape42-153" v:mID="42" v:groupContext="shape" transform="translate(283.3,-143.12)">
			<title>Sheet.42</title>
			<desc>c1</desc>
			<v:textBlock v:margins="rect(4,4,4,4)"/>
			<v:textRect cx="14.4" cy="317.04" width="28.8" height="20"/>
			<rect x="0" y="307.04" width="28.8" height="20" class="st5"/>
			<text x="7.89" y="321.24" class="st7" v:langID="1033"><v:paragraph v:horizAlign="1"/><v:tabList/>c1</text>		</g>
		<g id="shape43-156" v:mID="43" v:groupContext="shape" transform="translate(350.7,-45.12)">
			<title>Left Brace.43</title>
			<v:userDefs>
				<v:ud v:nameU="visVersion" v:prompt="" v:val="VT0(15):26"/>
			</v:userDefs>
			<path d="M28.8 327.04 A38.5574 9.0369 0 0 1 14.4 321.64 L14.4 300.04 L0 300.04 L14.4 300.04 L14.4 278.44 A38.5574 9.0369
						 0 0 1 28.8 273.04" class="st2"/>
		</g>
		<g id="shape44-159" v:mID="44" v:groupContext="shape" transform="translate(283.3,-108.12)">
			<title>Sheet.44</title>
			<desc>c2</desc>
			<v:textBlock v:margins="rect(4,4,4,4)"/>
			<v:textRect cx="14.4" cy="317.04" width="28.8" height="20"/>
			<rect x="0" y="307.04" width="28.8" height="20" class="st5"/>
			<text x="7.89" y="321.24" class="st7" v:langID="1033"><v:paragraph v:horizAlign="1"/><v:tabList/>c2</text>		</g>
		<g id="group45-162" transform="translate(297.7,-163.12)" v:mID="45" v:groupContext="group" v:layerMember="0">
			<v:userDefs>
				<v:ud v:nameU="visVersion" v:prompt="" v:val="VT0(15):26"/>
				<v:ud v:nameU="RelationshipName" v:prompt="" v:val="VT4()"/>
				<v:ud v:nameU="ShowMulti" v:prompt="" v:val="VT0(0):26"/>
				<v:ud v:nameU="Identifying" v:prompt="" v:val="VT0(1):26"/>
				<v:ud v:nameU="DXBegin" v:prompt="" v:val="VT0(0):1"/>
				<v:ud v:nameU="DYBegin" v:prompt="" v:val="VT0(-0.03):1"/>
				<v:ud v:nameU="DXEnd" v:prompt="" v:val="VT0(0.03):1"/>
				<v:ud v:nameU="DYEnd" v:prompt="" v:val="VT0(0):1"/>
				<v:ud v:nameU="BeginAngle" v:prompt="" v:val="VT0(-1.5707963267949):32"/>
				<v:ud v:nameU="EndAngle" v:prompt="" v:val="VT0(0):32"/>
				<v:ud v:nameU="DYBegin" v:prompt="" v:val="VT0(0.018541666467984):1"/>
				<v:ud v:nameU="DXEnd" v:prompt="" v:val="VT0(0.018541666467985):1"/>
				<v:ud v:nameU="BeginAngle" v:prompt="" v:val="VT0(1.5707963267949):32"/>
			</v:userDefs>
			<title>Inheritance.45</title>
			<g id="shape45-163" v:mID="45" v:groupContext="groupContent" v:layerMember="0">
				<path d="M0 327.04 C0 318.29 -0 305.92 9 299.38 C16.88 293.65 31.66 292.39 44.19 292.12 L44.55 292.11" class="st8"/>
			</g>
		</g>
		<g id="shape55-168" v:mID="55" v:groupContext="shape" transform="translate(394,-33.42)">
			<title>Delete</title>
			<v:userDefs>
				<v:ud v:nameU="visLegendShape" v:val="VT0(2):26"/>
				<v:ud v:nameU="visLocToPar" v:val="VT7(PNT(0.9,0.9)):40"/>
				<v:ud v:nameU="visVersion" v:val="VT0(15):26"/>
				<v:ud v:nameU="visLocToPar" v:prompt="" v:val="VT7(PNT(5.4722222222222,0.46416666666667)):40"/>
				<v:ud v:nameU="visIsConnected" v:prompt="" v:val="VT0(0):26"/>
			</v:userDefs>
			<path d="M43.13 293.92 L77.4 327.04 A440.273 385.349 -180 0 0 48.03 288.34 A440.273 385.349 -180 0 0 77.4 249.64 L43.13
						 282.76 A440.273 385.349 -180 0 0 15.48 254.78 A29.5073 25.8263 -180 0 0 -0 252.24 L37.36 288.34 L0 324.44
						 A29.5073 25.8263 -180 0 0 15.48 321.9 A440.273 385.349 -180 0 0 43.13 293.92 Z" class="st10"/>
		</g>
		<g id="group58-170" transform="translate(312.1,-128.12)" v:mID="58" v:groupContext="group" v:layerMember="0">
			<v:userDefs>
				<v:ud v:nameU="visVersion" v:prompt="" v:val="VT0(15):26"/>
				<v:ud v:nameU="RelationshipName" v:prompt="" v:val="VT4()"/>
				<v:ud v:nameU="ShowMulti" v:prompt="" v:val="VT0(0):26"/>
				<v:ud v:nameU="Identifying" v:prompt="" v:val="VT0(1):26"/>
				<v:ud v:nameU="DXBegin" v:prompt="" v:val="VT0(0):1"/>
				<v:ud v:nameU="DYBegin" v:prompt="" v:val="VT0(-0.03):1"/>
				<v:ud v:nameU="DXEnd" v:prompt="" v:val="VT0(0.03):1"/>
				<v:ud v:nameU="DYEnd" v:prompt="" v:val="VT0(0):1"/>
				<v:ud v:nameU="BeginAngle" v:prompt="" v:val="VT0(-1.5707963267949):32"/>
				<v:ud v:nameU="EndAngle" v:prompt="" v:val="VT0(0):32"/>
				<v:ud v:nameU="DXBegin" v:prompt="" v:val="VT0(0.029847174791057):1"/>
				<v:ud v:nameU="DYBegin" v:prompt="" v:val="VT0(-2.2204460492503E-16):1"/>
				<v:ud v:nameU="DXEnd" v:prompt="" v:val="VT0(-0.39311458313465):1"/>
				<v:ud v:nameU="DYEnd" v:prompt="" v:val="VT0(-0.033081514880759):1"/>
				<v:ud v:nameU="BeginAngle" v:prompt="" v:val="VT0(0):32"/>
				<v:ud v:nameU="EndAngle" v:prompt="" v:val="VT0(-3.0576381115337):32"/>
			</v:userDefs>
			<title>Inheritance.58</title>
			<g id="shape58-171" v:mID="58" v:groupContext="groupContent" v:layerMember="0">
				<path d="M0 327.04 C9.57 327.04 22.82 327.04 29.96 315.83 C36.84 305.02 38.02 283.77 38.22 266.85 L38.22 266.49"
						class="st8"/>
			</g>
		</g>
	</g>
</svg>
