<?xml version="1.0" encoding="UTF-8" standalone="no"?>
<!DOCTYPE svg PUBLIC "-//W3C//DTD SVG 1.1//EN" "http://www.w3.org/Graphics/SVG/1.1/DTD/svg11.dtd">
<!-- Generated by Microsoft Visio, SVG Export memory_static.svg Page-1 -->
<svg xmlns="http://www.w3.org/2000/svg" xmlns:xlink="http://www.w3.org/1999/xlink" xmlns:ev="http://www.w3.org/2001/xml-events"
		xmlns:v="http://schemas.microsoft.com/visio/2003/SVGExtensions/" width="3.95514in" height="4.54055in"
		viewBox="0 0 284.77 326.92" xml:space="preserve" color-interpolation-filters="sRGB" class="st12">
	<v:documentProperties v:langID="1033" v:viewMarkup="false">
		<v:userDefs>
			<v:ud v:nameU="msvNoAutoConnect" v:val="VT0(1):26"/>
		</v:userDefs>
	</v:documentProperties>

	<style type="text/css">
	<![CDATA[
		.st1 {fill:#ffffff}
		.st2 {stroke:#000000;stroke-linecap:round;stroke-linejoin:round;stroke-width:0.24}
		.st3 {fill:#000000;font-family:Calibri;font-size:1.33333em}
		.st4 {font-size:1em}
		.st5 {fill:none;stroke:none;stroke-linecap:round;stroke-linejoin:round;stroke-width:0.75}
		.st6 {fill:#000000;font-family:Calibri;font-size:1.5em}
		.st7 {fill:#000000;font-family:Calibri;font-size:1.16666em}
		.st8 {marker-end:url(#mrkr14-80);stroke:#000000;stroke-linecap:round;stroke-linejoin:round;stroke-width:0.75}
		.st9 {fill:#000000;fill-opacity:1;stroke:#000000;stroke-opacity:1;stroke-width:0.22935779816514}
		.st10 {marker-end:url(#mrkr14-93);stroke:#ff0000;stroke-linecap:round;stroke-linejoin:round;stroke-width:0.75}
		.st11 {fill:#ff0000;fill-opacity:1;stroke:#ff0000;stroke-opacity:1;stroke-width:0.22935779816514}
		.st12 {fill:none;fill-rule:evenodd;font-size:12px;overflow:visible;stroke-linecap:square;stroke-miterlimit:3}
	]]>
	</style>

	<defs id="Markers">
		<g id="lend14">
			<path d="M 3 -1 L 0 0 L 3 1 L 3 -1 " style="stroke-linecap:round;stroke-linejoin:round;fill:none"/>
		</g>
		<marker id="mrkr14-80" class="st9" v:arrowType="14" v:arrowSize="2" v:setback="12.6" refX="-12.6" orient="auto"
				markerUnits="strokeWidth" overflow="visible">
			<use xlink:href="#lend14" transform="scale(-4.36,-4.36) "/>
		</marker>
		<marker id="mrkr14-93" class="st11" v:arrowType="14" v:arrowSize="2" v:setback="12.6" refX="-12.6" orient="auto"
				markerUnits="strokeWidth" overflow="visible">
			<use xlink:href="#lend14" transform="scale(-4.36,-4.36) "/>
		</marker>
	</defs>
	<g v:mID="0" v:index="1" v:groupContext="foregroundPage">
		<title>Page-1</title>
		<v:pageProperties v:drawingScale="1" v:pageScale="1" v:drawingUnits="19" v:shadowOffsetX="9" v:shadowOffsetY="-9"/>
		<v:layer v:name="Connector" v:index="0"/>
		<g id="shape3-1" v:mID="3" v:groupContext="shape" transform="translate(145.395,-108.12)">
			<title>15 ruled column</title>
			<v:userDefs>
				<v:ud v:nameU="AntiScale" v:val="VT0(1):26"/>
				<v:ud v:nameU="visVersion" v:val="VT0(15):26"/>
			</v:userDefs>
			<path d="M0 326.92 L90 326.92 L90 236.92 L0 236.92 L0 326.92 Z" class="st1"/>
			<path d="M0 326.92 L90 326.92 L90 236.92 L0 236.92 L0 326.92" class="st2"/>
			<path d="M0 254.92 L90 254.92" class="st2"/>
			<path d="M0 272.92 L90 272.92" class="st2"/>
			<path d="M0 290.92 L90 290.92" class="st2"/>
			<path d="M0 308.92 L90 308.92" class="st2"/>
			<path d="M0 326.92 L90 326.92" class="st2"/>
			<path d="M0 326.92 L90 326.92" class="st2"/>
			<path d="M0 326.92 L90 326.92" class="st2"/>
			<path d="M0 326.92 L90 326.92" class="st2"/>
			<path d="M0 326.92 L90 326.92" class="st2"/>
			<path d="M0 326.92 L90 326.92" class="st2"/>
			<path d="M0 326.92 L90 326.92" class="st2"/>
			<path d="M0 326.92 L90 326.92" class="st2"/>
			<path d="M0 326.92 L90 326.92" class="st2"/>
			<path d="M0 326.92 L90 326.92" class="st2"/>
		</g>
		<g id="shape9-18" v:mID="9" v:groupContext="shape" transform="translate(145.395,-198.12)">
			<title>15 ruled column.9</title>
			<desc>count c1.x c1.y c1.r</desc>
			<v:userDefs>
				<v:ud v:nameU="AntiScale" v:val="VT0(1):26"/>
				<v:ud v:nameU="visVersion" v:val="VT0(15):26"/>
			</v:userDefs>
			<v:textBlock v:margins="rect(0,4,4,4)" v:verticalAlign="0"/>
			<v:textRect cx="45" cy="281.92" width="90" height="90"/>
			<path d="M0 326.92 L90 326.92 L90 236.92 L0 236.92 L0 326.92 Z" class="st1"/>
			<path d="M0 326.92 L90 326.92 L90 236.92 L0 236.92 L0 326.92" class="st2"/>
			<path d="M0 254.92 L90 254.92" class="st2"/>
			<path d="M0 272.92 L90 272.92" class="st2"/>
			<path d="M0 290.92 L90 290.92" class="st2"/>
			<path d="M0 308.92 L90 308.92" class="st2"/>
			<path d="M0 326.92 L90 326.92" class="st2"/>
			<path d="M0 326.92 L90 326.92" class="st2"/>
			<path d="M0 326.92 L90 326.92" class="st2"/>
			<path d="M0 326.92 L90 326.92" class="st2"/>
			<path d="M0 326.92 L90 326.92" class="st2"/>
			<path d="M0 326.92 L90 326.92" class="st2"/>
			<path d="M0 326.92 L90 326.92" class="st2"/>
			<path d="M0 326.92 L90 326.92" class="st2"/>
			<path d="M0 326.92 L90 326.92" class="st2"/>
			<path d="M0 326.92 L90 326.92" class="st2"/>
			<text x="26.31" y="268.42" class="st3" v:langID="1033"><v:paragraph v:spLine="0.25" v:horizAlign="1"/><v:tabList/><v:newlineChar/>count<v:newlineChar/><v:newlineChar/><tspan
						x="32.08" dy="2.25em" class="st4">c1.x<v:newlineChar/></tspan><tspan x="31.92" dy="1.125em" class="st4">c1.y<v:newlineChar/><v:paragraph
							v:spLine="0.25" v:horizAlign="1"/></tspan><tspan x="32.75" dy="1.125em" class="st4">c1.r</tspan> </text>		</g>
		<g id="shape7-39" v:mID="7" v:groupContext="shape" transform="translate(145.395,-18.12)">
			<title>15 ruled column.7</title>
			<desc>c2.x c2.y c2.r</desc>
			<v:userDefs>
				<v:ud v:nameU="AntiScale" v:val="VT0(1):26"/>
				<v:ud v:nameU="visVersion" v:val="VT0(15):26"/>
			</v:userDefs>
			<v:textBlock v:margins="rect(0,4,4,4)" v:verticalAlign="0"/>
			<v:textRect cx="45" cy="281.92" width="90" height="90"/>
			<path d="M0 326.92 L90 326.92 L90 236.92 L0 236.92 L0 326.92 Z" class="st1"/>
			<path d="M0 326.92 L90 326.92 L90 236.92 L0 236.92 L0 326.92" class="st2"/>
			<path d="M0 254.92 L90 254.92" class="st2"/>
			<path d="M0 272.92 L90 272.92" class="st2"/>
			<path d="M0 290.92 L90 290.92" class="st2"/>
			<path d="M0 308.92 L90 308.92" class="st2"/>
			<path d="M0 326.92 L90 326.92" class="st2"/>
			<path d="M0 326.92 L90 326.92" class="st2"/>
			<path d="M0 326.92 L90 326.92" class="st2"/>
			<path d="M0 326.92 L90 326.92" class="st2"/>
			<path d="M0 326.92 L90 326.92" class="st2"/>
			<path d="M0 326.92 L90 326.92" class="st2"/>
			<path d="M0 326.92 L90 326.92" class="st2"/>
			<path d="M0 326.92 L90 326.92" class="st2"/>
			<path d="M0 326.92 L90 326.92" class="st2"/>
			<path d="M0 326.92 L90 326.92" class="st2"/>
			<text x="32.08" y="250.42" class="st3" v:langID="1033"><v:paragraph v:spLine="0.25" v:horizAlign="1"/><v:tabList/>c2.x<v:newlineChar/><tspan
						x="31.92" dy="1.125em" class="st4">c2.y<v:newlineChar/></tspan><tspan x="32.75" dy="1.125em" class="st4">c2.r</tspan></text>		</g>
		<g id="shape11-59" v:mID="11" v:groupContext="shape" transform="translate(114.395,-288.12)">
			<title>Sheet.11</title>
			<desc>System Memory</desc>
			<v:textBlock v:margins="rect(4,4,4,4)"/>
			<v:textRect cx="76" cy="316.92" width="152" height="20"/>
			<rect x="0" y="306.92" width="152" height="20" class="st5"/>
			<text x="16.23" y="322.32" class="st6" v:langID="1033"><v:paragraph v:horizAlign="1"/><v:tabList/>System Memory</text>		</g>
		<g id="shape14-62" v:mID="14" v:groupContext="shape" transform="translate(109.395,-179.88)">
			<title>Left Brace</title>
			<v:userDefs>
				<v:ud v:nameU="visVersion" v:prompt="" v:val="VT0(15):26"/>
			</v:userDefs>
			<path d="M28.8 326.92 A38.5574 9.0369 0 0 1 14.4 321.52 L14.4 299.92 L0 299.92 L14.4 299.92 L14.4 278.32 A38.5574 9.0369
						 0 0 1 28.8 272.92" class="st2"/>
		</g>
		<g id="shape15-65" v:mID="15" v:groupContext="shape" transform="translate(40.995,-143.12)">
			<title>Sheet.15</title>
			<desc>c1</desc>
			<v:textBlock v:margins="rect(4,4,4,4)"/>
			<v:textRect cx="14.4" cy="316.92" width="28.8" height="20"/>
			<rect x="0" y="306.92" width="28.8" height="20" class="st5"/>
			<text x="7.89" y="321.12" class="st7" v:langID="1033"><v:paragraph v:horizAlign="1"/><v:tabList/>c1</text>		</g>
		<g id="shape17-68" v:mID="17" v:groupContext="shape" transform="translate(108.395,-53.88)">
			<title>Left Brace.17</title>
			<v:userDefs>
				<v:ud v:nameU="visVersion" v:prompt="" v:val="VT0(15):26"/>
			</v:userDefs>
			<path d="M28.8 326.92 A38.5574 9.0369 0 0 1 14.4 321.52 L14.4 299.92 L0 299.92 L14.4 299.92 L14.4 278.32 A38.5574 9.0369
						 0 0 1 28.8 272.92" class="st2"/>
		</g>
		<g id="shape18-71" v:mID="18" v:groupContext="shape" transform="translate(40.995,-108.12)">
			<title>Sheet.18</title>
			<desc>c2</desc>
			<v:textBlock v:margins="rect(4,4,4,4)"/>
			<v:textRect cx="14.4" cy="316.92" width="28.8" height="20"/>
			<rect x="0" y="306.92" width="28.8" height="20" class="st5"/>
			<text x="7.89" y="321.12" class="st7" v:langID="1033"><v:paragraph v:horizAlign="1"/><v:tabList/>c2</text>		</g>
		<g id="group26-74" transform="translate(55.395,-163.12)" v:mID="26" v:groupContext="group" v:layerMember="0">
			<v:userDefs>
				<v:ud v:nameU="visVersion" v:prompt="" v:val="VT0(15):26"/>
				<v:ud v:nameU="RelationshipName" v:prompt="" v:val="VT4()"/>
				<v:ud v:nameU="ShowMulti" v:prompt="" v:val="VT0(0):26"/>
				<v:ud v:nameU="Identifying" v:prompt="" v:val="VT0(1):26"/>
				<v:ud v:nameU="DXBegin" v:prompt="" v:val="VT0(0):1"/>
				<v:ud v:nameU="DYBegin" v:prompt="" v:val="VT0(-0.03):1"/>
				<v:ud v:nameU="DXEnd" v:prompt="" v:val="VT0(0.03):1"/>
				<v:ud v:nameU="DYEnd" v:prompt="" v:val="VT0(0):1"/>
				<v:ud v:nameU="BeginAngle" v:prompt="" v:val="VT0(-1.5707963267949):32"/>
				<v:ud v:nameU="EndAngle" v:prompt="" v:val="VT0(0):32"/>
				<v:ud v:nameU="DYBegin" v:prompt="" v:val="VT0(0.020366666467983):1"/>
				<v:ud v:nameU="DXEnd" v:prompt="" v:val="VT0(0.020366666467988):1"/>
				<v:ud v:nameU="BeginAngle" v:prompt="" v:val="VT0(1.5707963267949):32"/>
			</v:userDefs>
			<title>Inheritance</title>
			<g id="shape26-75" v:mID="26" v:groupContext="groupContent" v:layerMember="0">
				<path d="M0 326.92 C0 315.98 -0 300.05 9.55 291.85 C17.43 285.08 31.83 283.58 44.19 283.25 L44.55 283.25"
						class="st8"/>
			</g>
		</g>
		<g id="group32-81" transform="translate(55.395,-108.12)" v:mID="32" v:groupContext="group" v:layerMember="0">
			<v:userDefs>
				<v:ud v:nameU="visVersion" v:prompt="" v:val="VT0(15):26"/>
				<v:ud v:nameU="RelationshipName" v:prompt="" v:val="VT4()"/>
				<v:ud v:nameU="ShowMulti" v:prompt="" v:val="VT0(0):26"/>
				<v:ud v:nameU="Identifying" v:prompt="" v:val="VT0(1):26"/>
				<v:ud v:nameU="DXBegin" v:prompt="" v:val="VT0(0):1"/>
				<v:ud v:nameU="DYBegin" v:prompt="" v:val="VT0(-0.03):1"/>
				<v:ud v:nameU="DXEnd" v:prompt="" v:val="VT0(0.03):1"/>
				<v:ud v:nameU="DYEnd" v:prompt="" v:val="VT0(0):1"/>
				<v:ud v:nameU="BeginAngle" v:prompt="" v:val="VT0(-1.5707963267949):32"/>
				<v:ud v:nameU="EndAngle" v:prompt="" v:val="VT0(0):32"/>
				<v:ud v:nameU="DYBegin" v:prompt="" v:val="VT0(-0.016716666666666):1"/>
				<v:ud v:nameU="DXEnd" v:prompt="" v:val="VT0(0.016716666666667):1"/>
			</v:userDefs>
			<title>Inheritance.32</title>
			<g id="shape32-82" v:mID="32" v:groupContext="groupContent" v:layerMember="0">
				<path d="M0 326.92 C0 333.73 -0 343.11 8.37 348.18 C16.06 352.83 30.79 353.87 43.19 354.09 L43.55 354.1"
						class="st8"/>
			</g>
		</g>
		<g id="group38-87" transform="translate(55.395,-163.12)" v:mID="38" v:groupContext="group" v:layerMember="0">
			<v:userDefs>
				<v:ud v:nameU="visVersion" v:prompt="" v:val="VT0(15):26"/>
				<v:ud v:nameU="RelationshipName" v:prompt="" v:val="VT4()"/>
				<v:ud v:nameU="ShowMulti" v:prompt="" v:val="VT0(0):26"/>
				<v:ud v:nameU="Identifying" v:prompt="" v:val="VT0(1):26"/>
				<v:ud v:nameU="DXBegin" v:prompt="" v:val="VT0(0):1"/>
				<v:ud v:nameU="DYBegin" v:prompt="" v:val="VT0(-0.03):1"/>
				<v:ud v:nameU="DXEnd" v:prompt="" v:val="VT0(0.03):1"/>
				<v:ud v:nameU="DYEnd" v:prompt="" v:val="VT0(0):1"/>
				<v:ud v:nameU="BeginAngle" v:prompt="" v:val="VT0(-1.5707963267949):32"/>
				<v:ud v:nameU="EndAngle" v:prompt="" v:val="VT0(0):32"/>
				<v:ud v:nameU="DXBegin" v:prompt="" v:val="VT0(8.8817841970013E-16):0"/>
				<v:ud v:nameU="DYBegin" v:prompt="" v:val="VT0(0.041041666467984):0"/>
				<v:ud v:nameU="DXEnd" v:prompt="" v:val="VT0(0.041041666467986):0"/>
				<v:ud v:nameU="DYEnd" v:prompt="" v:val="VT0(0):0"/>
				<v:ud v:nameU="BeginAngle" v:prompt="" v:val="VT0(1.5707963267949):32"/>
			</v:userDefs>
			<title>Inheritance.38</title>
			<g id="shape38-88" v:mID="38" v:groupContext="groupContent" v:layerMember="0">
				<path d="M0 326.92 C0 300.17 -0 259.08 17.69 239.03 C32.24 222.55 58.74 220.28 80.19 219.97 L80.55 219.97"
						class="st10"/>
			</g>
		</g>
		<g id="group50-94" transform="translate(40.995,-128.12)" v:mID="50" v:groupContext="group" v:layerMember="0">
			<v:userDefs>
				<v:ud v:nameU="visVersion" v:prompt="" v:val="VT0(15):26"/>
				<v:ud v:nameU="RelationshipName" v:prompt="" v:val="VT4()"/>
				<v:ud v:nameU="ShowMulti" v:prompt="" v:val="VT0(0):26"/>
				<v:ud v:nameU="Identifying" v:prompt="" v:val="VT0(1):26"/>
				<v:ud v:nameU="DXBegin" v:prompt="" v:val="VT0(0):1"/>
				<v:ud v:nameU="DYBegin" v:prompt="" v:val="VT0(-0.03):1"/>
				<v:ud v:nameU="DXEnd" v:prompt="" v:val="VT0(0.03):1"/>
				<v:ud v:nameU="DYEnd" v:prompt="" v:val="VT0(0):1"/>
				<v:ud v:nameU="BeginAngle" v:prompt="" v:val="VT0(-1.5707963267949):32"/>
				<v:ud v:nameU="EndAngle" v:prompt="" v:val="VT0(0):32"/>
				<v:ud v:nameU="DXBegin" v:prompt="" v:val="VT0(-0.046875):1"/>
				<v:ud v:nameU="DYBegin" v:prompt="" v:val="VT0(0.0052489583363131):1"/>
				<v:ud v:nameU="DXEnd" v:prompt="" v:val="VT0(0.0052489583363164):1"/>
				<v:ud v:nameU="DYEnd" v:prompt="" v:val="VT0(0.046875):1"/>
				<v:ud v:nameU="BeginAngle" v:prompt="" v:val="VT0(3.0300794164272):32"/>
				<v:ud v:nameU="EndAngle" v:prompt="" v:val="VT0(1.4592830896322):32"/>
			</v:userDefs>
			<title>Inheritance.50</title>
			<g id="shape50-95" v:mID="50" v:groupContext="groupContent" v:layerMember="0">
				<path d="M0 326.92 C-1.69 326.92 -2.11 326.92 -2.43 325.83 C-3.38 322.57 -3.38 309.58 -3.38 293.55 C-3.38 272.19
							 -3.38 245.43 -3.38 226.07 C-3.38 209.81 -3.38 198.76 6.07 193.39 C15.02 188.29 32.46 188.29 54.75 188.29
							 C67.85 188.29 82.62 188.29 91.98 187.49 L92.33 187.4" class="st10"/>
			</g>
		</g>
	</g>
</svg>
